<svg version="1.1" id="Layer_1" xmlns="http://www.w3.org/2000/svg" xmlns:xlink="http://www.w3.org/1999/xlink" x="0px" y="0px"
	 width="100%" viewBox="0 0 220 220" enable-background="new 0 0 220 220" xml:space="preserve">
<path fill="#000000" opacity="1.000000" stroke="none" 
	d="
M120.000000,221.000000 
	C80.000000,221.000000 40.500004,221.000000 1.000005,221.000000 
	C1.000004,147.666672 1.000004,74.333344 1.000002,1.000015 
	C74.333321,1.000010 147.666641,1.000010 220.999969,1.000005 
	C220.999985,74.333321 220.999985,147.666641 221.000000,220.999969 
	C187.500000,221.000000 154.000000,221.000000 120.000000,221.000000 
M129.013794,50.132755 
	C129.009048,41.642788 129.002625,33.152824 129.000000,24.662857 
	C128.997116,15.351466 128.842300,15.209628 119.493889,16.043270 
	C119.162560,16.072817 118.829102,16.090387 118.500862,16.140972 
	C88.333855,20.789927 64.168335,34.842651 47.873035,61.223804 
	C34.472103,82.919136 30.832830,106.538033 35.733891,131.181732 
	C40.455967,154.925476 53.455444,173.963852 72.957443,188.230148 
	C88.191795,199.374527 105.390984,205.450165 124.411903,206.039139 
	C127.883873,206.146652 129.102432,204.865082 129.052567,201.404907 
	C128.906250,191.252502 129.016220,181.096390 129.899155,170.993820 
	C140.462448,170.062683 150.412003,167.852585 159.828812,162.186401 
	C184.379395,147.414062 193.476807,119.865448 186.482025,95.255043 
	C178.405075,66.837044 156.238663,52.469837 129.013794,50.132755 
z"/>
<path fill="#1A1A1A" opacity="1.000000" stroke="none" 
	d="
M129.025818,170.941742 
	C129.016220,181.096390 128.906250,191.252502 129.052567,201.404907 
	C129.102432,204.865082 127.883873,206.146652 124.411903,206.039139 
	C105.390984,205.450165 88.191795,199.374527 72.957443,188.230148 
	C53.455444,173.963852 40.455967,154.925476 35.733891,131.181732 
	C30.832830,106.538033 34.472103,82.919136 47.873035,61.223804 
	C64.168335,34.842651 88.333855,20.789927 118.500862,16.140972 
	C118.829102,16.090387 119.162560,16.072817 119.493889,16.043270 
	C128.842300,15.209628 128.997116,15.351466 129.000000,24.662857 
	C129.002625,33.152824 129.009048,41.642788 128.955048,50.842449 
	C128.706665,51.853958 128.433823,52.013222 127.652893,52.026917 
	C125.265785,52.341225 123.313927,52.762264 121.339706,52.960232 
	C94.737946,55.627750 72.086388,78.760612 70.065804,105.759705 
	C67.500496,140.037643 92.556198,169.114609 128.293365,170.047516 
	C128.829529,170.312958 128.995102,170.586533 129.025818,170.941742 
z"/>
<path fill="#E9EF37" opacity="1.000000" stroke="none" 
	d="
M128.077759,52.029938 
	C128.433823,52.013222 128.706665,51.853958 128.962143,51.316071 
	C156.238663,52.469837 178.405075,66.837044 186.482025,95.255043 
	C193.476807,119.865448 184.379395,147.414062 159.828812,162.186401 
	C150.412003,167.852585 140.462448,170.062683 129.462494,170.967773 
	C128.995102,170.586533 128.829529,170.312958 128.267273,169.581604 
	C128.026245,157.704651 128.047043,146.367081 128.300629,134.965271 
	C128.850189,134.734879 129.014328,134.473068 129.491394,134.073013 
	C137.215118,134.030457 144.473282,134.030457 151.705978,134.030457 
	C151.705978,118.367287 151.705978,103.318268 151.705978,87.948425 
	C143.949158,87.948425 136.485413,87.948425 128.945557,87.713997 
	C128.677002,87.181763 128.404419,87.014824 128.028168,86.511963 
	C128.029022,74.706749 128.053391,63.368343 128.077759,52.029938 
z"/>
<path fill="#000000" opacity="1.000000" stroke="none" 
	d="
M128.067841,135.029526 
	C128.047043,146.367081 128.026245,157.704651 128.031555,169.508118 
	C92.556198,169.114609 67.500496,140.037643 70.065804,105.759705 
	C72.086388,78.760612 94.737946,55.627750 121.339706,52.960232 
	C123.313927,52.762264 125.265785,52.341225 127.652893,52.026917 
	C128.053391,63.368343 128.029022,74.706749 127.556519,86.518051 
	C121.122398,86.996552 115.134895,87.084122 109.151093,86.972725 
	C106.217331,86.918106 104.949600,87.974869 104.970024,91.027351 
	C105.059036,104.328957 105.057541,117.631798 104.971283,130.933426 
	C104.951736,133.947540 106.142227,135.079315 109.113037,135.028748 
	C115.429466,134.921280 121.749367,135.017059 128.067841,135.029526 
z"/>
<path fill="#1A1A1A" opacity="1.000000" stroke="none" 
	d="
M128.300629,134.965271 
	C121.749367,135.017059 115.429466,134.921280 109.113037,135.028748 
	C106.142227,135.079315 104.951736,133.947540 104.971283,130.933426 
	C105.057541,117.631798 105.059036,104.328957 104.970024,91.027351 
	C104.949600,87.974869 106.217331,86.918106 109.151093,86.972725 
	C115.134895,87.084122 121.122398,86.996552 127.580032,86.984856 
	C128.404419,87.014824 128.677002,87.181763 128.939545,88.185692 
	C129.015045,103.966400 129.020432,119.040985 129.025848,134.115570 
	C129.014328,134.473068 128.850189,134.734879 128.300629,134.965271 
z"/>
<path fill="#000000" opacity="1.000000" stroke="none" 
	d="
M129.491394,134.073013 
	C129.020432,119.040985 129.015045,103.966400 129.015656,88.420120 
	C136.485413,87.948425 143.949158,87.948425 151.705978,87.948425 
	C151.705978,103.318268 151.705978,118.367287 151.705978,134.030457 
	C144.473282,134.030457 137.215118,134.030457 129.491394,134.073013 
z"/>
</svg>